<?xml version="1.0"?>
<svg xmlns="http://www.w3.org/2000/svg" xmlns:xlink="http://www.w3.org/1999/xlink" xmlns:svgjs="http://svgjs.com/svgjs"
     version="1.1"
     width="512"
     height="512"
     x="0"
     y="0"
     viewBox="0 0 512 512" style="enable-background:new 0 0 512 512"
     xml:space="preserve" class=""><g><g xmlns="http://www.w3.org/2000/svg">
    <path d="m113.836 161.571v-13.217l39.185-39.185v20.521c0 4.142 3.357 7.5 7.5 7.5s7.5-3.358 7.5-7.5v-35.521l6.366-6.366c2.929-2.929 2.929-7.678 0-10.606-2.93-2.929-7.678-2.929-10.607 0l-6.366 6.366h-35.521c-4.143 0-7.5 3.358-7.5 7.5s3.357 7.5 7.5 7.5h20.521l-39.184 39.184h-13.217c-4.143 0-7.5 3.358-7.5 7.5s3.357 7.5 7.5 7.5h8.823v8.824c0 4.142 3.357 7.5 7.5 7.5s7.5-3.358 7.5-7.5zm274.217 20.602h-264.106c-9.649 0-17.5 7.851-17.5 17.5v85.246c0 9.649 7.851 17.5 17.5 17.5h169.138c4.143 0 7.5-3.358 7.5-7.5s-3.357-7.5-7.5-7.5h-169.138c-1.379 0-2.5-1.122-2.5-2.5v-85.246c0-1.378 1.121-2.5 2.5-2.5h264.105c1.379 0 2.5 1.122 2.5 2.5v85.246c0 1.378-1.121 2.5-2.5 2.5h-59.968c-4.143 0-7.5 3.358-7.5 7.5s3.357 7.5 7.5 7.5h59.968c9.649 0 17.5-7.851 17.5-17.5v-85.246c.001-9.649-7.85-17.5-17.499-17.5zm-230.962 30h-13.144c-4.143 0-7.5 3.358-7.5 7.5v45.246c-.023 4.068 3.424 7.521 7.5 7.5h.033s12.076-.054 15.405-.054c10.851 0 19.679-8.828 19.679-19.679 0-5.606-2.368-10.66-6.143-14.247 1.323-2.497 2.08-5.338 2.08-8.355.001-9.876-8.034-17.911-17.91-17.911zm-5.644 15h5.644c1.605 0 2.911 1.306 2.911 2.911s-1.306 2.911-2.911 2.911c-1.027 0-3.769.012-5.644.012zm7.939 30.193c-1.504 0-4.783.011-7.938.023v-9.378c1.271.053 6.739-.003 7.938-.003 2.58 0 4.679 2.099 4.679 4.679s-2.099 4.679-4.679 4.679zm293.114 90.053c7.995 0 14.5-6.505 14.5-14.5v-288.419c0-7.995-6.505-14.5-14.5-14.5h-393c-7.995 0-14.5 6.505-14.5 14.5v288.419c0 7.995 6.505 14.5 14.5 14.5zm-392.5-302.419h392v287.419h-392zm399.5-45h-407c-20.678 0-37.5 16.822-37.5 37.5v67.877c0 4.142 3.357 7.5 7.5 7.5s7.5-3.358 7.5-7.5v-67.877c0-12.407 10.094-22.5 22.5-22.5h407c12.406 0 22.5 10.093 22.5 22.5v302.419c0 12.407-10.094 22.5-22.5 22.5h-407c-12.406 0-22.5-10.093-22.5-22.5v-199.542c0-4.142-3.357-7.5-7.5-7.5s-7.5 3.358-7.5 7.5v199.542c0 20.678 16.822 37.5 37.5 37.5h166.398l-12.036 60.924h-4.771c-17.465 0-31.673 14.208-31.673 31.673v30.484c0 6.341 5.159 11.5 11.5 11.5h148.164c6.341 0 11.5-5.159 11.5-11.5v-30.483c0-17.465-14.208-31.673-31.673-31.673h-4.771l-12.036-60.924h166.398c20.678 0 37.5-16.822 37.5-37.5v-302.42c0-20.678-16.822-37.5-37.5-37.5zm-225.312 377.419h43.625l12.036 60.924h-67.697zm75.721 75.924c9.193 0 16.673 7.479 16.673 16.673v26.984h-141.164v-26.983c0-9.194 7.479-16.673 16.673-16.673h107.818zm111.057-348.343h-201.391c-4.143 0-7.5 3.358-7.5 7.5s3.357 7.5 7.5 7.5h201.391c4.143 0 7.5-3.358 7.5-7.5s-3.358-7.5-7.5-7.5zm-90 45c4.143 0 7.5-3.358 7.5-7.5s-3.357-7.5-7.5-7.5h-111.391c-4.143 0-7.5 3.358-7.5 7.5s3.357 7.5 7.5 7.5zm-38.004 62.173c-16.61 0-30.123 13.513-30.123 30.123s13.513 30.123 30.123 30.123 30.123-13.513 30.123-30.123-13.513-30.123-30.123-30.123zm0 45.246c-8.339 0-15.123-6.784-15.123-15.123s6.784-15.123 15.123-15.123 15.123 6.784 15.123 15.123-6.784 15.123-15.123 15.123zm-101.892-15.123c0 16.61 13.513 30.123 30.123 30.123s30.123-13.513 30.123-30.123-13.513-30.123-30.123-30.123-30.123 13.514-30.123 30.123zm45.246 0c0 8.339-6.784 15.123-15.123 15.123s-15.123-6.784-15.123-15.123 6.784-15.123 15.123-15.123 15.123 6.785 15.123 15.123zm184.65-167.296h-201.391c-4.143 0-7.5 3.358-7.5 7.5s3.357 7.5 7.5 7.5h201.391c4.143 0 7.5-3.358 7.5-7.5s-3.358-7.5-7.5-7.5zm-78.86 137.173c-4.143 0-7.5 3.358-7.5 7.5v45.246c0 4.142 3.357 7.5 7.5 7.5s7.5-3.358 7.5-7.5v-7.375l13.239 12.772c2.977 2.874 7.727 2.794 10.604-.19 2.876-2.981 2.791-7.729-.19-10.605l-18.766-18.104 17.027-15.651c3.05-2.803 3.25-7.548.446-10.597-2.803-3.05-7.548-3.25-10.597-.447l-11.765 10.814v-5.862c.002-4.143-3.355-7.501-7.498-7.501z" fill="#000000" data-original="#000000" style="" class=""/></g></g></svg>
